<svg xmlns="http://www.w3.org/2000/svg" viewBox="0 0 32 32" role="img" aria-label="Word document">
  <path fill="#2b579a" d="M6 2h11.5L26 10.5V30H6V2z"/>
  <path fill="#41a5ee" d="M17.5 2V11H26L17.5 2z"/>
  <path fill="#fff" d="M9.2 20.4 10.6 14h1.5l1.3 4.7 1.4-4.7h1.4l1.5 6.4h-1.5l-.9-4.1-1.4 4.1h-1.2l-1.3-4.1-.9 4.1H9.2zm8.1 0V14h3.2c1.1 0 1.9.3 2.4.9.5.6.8 1.4.8 2.4 0 1.1-.3 1.9-.9 2.5-.6.6-1.5.9-2.7.9h-2.8zm1.4-1.1h1.5c.7 0 1.2-.2 1.5-.5.3-.3.5-.8.5-1.4 0-.6-.2-1.1-.5-1.4-.3-.3-.8-.5-1.5-.5h-1.5v3.8z"/>
</svg>
